<svg width="168" height="154" viewBox="0 0 168 154" fill="none" xmlns="http://www.w3.org/2000/svg">
<path d="M47.8052 72.9999C47.8052 82.941 55.864 90.9999 65.8052 90.9999L92.8052 90.9999C95.5666 90.9999 97.8052 88.7613 97.8052 85.9999L97.8052 51.9999C97.8052 46.477 93.328 41.9999 87.8052 41.9999L52.8052 41.9999C50.0437 41.9999 47.8052 44.2385 47.8052 46.9999L47.8052 72.9999Z" fill="#FFF1DA"/>
<path d="M96.3891 86.9413C95.0307 87.2456 93.7077 87.8091 92.5022 88.5965C89.3614 90.5978 87.5341 93.4546 88.421 94.9767C89.308 96.4988 92.5731 96.1095 95.7138 94.1082C96.9356 93.3486 98.021 92.3779 98.9032 91.2559C99.3125 90.7138 99.386 90.0383 99.0908 89.5334L97.9386 87.556C97.6454 87.0495 97.0374 86.8086 96.3891 86.9413Z" fill="#D5D6DB"/>
<path d="M88.5021 59.9482C87.5171 60.169 86.5577 60.5778 85.6834 61.1488C83.4066 62.5996 82.0808 64.671 82.7234 65.7738C83.366 66.8766 85.7345 66.5941 88.0111 65.1434C88.897 64.5923 89.6839 63.8881 90.3237 63.0744C90.6202 62.6815 90.6733 62.1922 90.4593 61.8261L89.6251 60.3943C89.4128 60.0271 88.9722 59.8521 88.5021 59.9482Z" fill="#D5D6DB"/>
<path d="M75.6879 61.0786C75.4686 61.0541 75.2348 61.1126 75.032 61.2421L69.6839 64.6503C69.2365 64.9345 69.0575 65.4818 69.2844 65.873C69.3363 65.9626 69.4073 66.0392 69.4936 66.0982L82.6752 75.1831L100.509 63.8184L75.6879 61.0786Z" fill="#029BC5"/>
<path d="M132.065 59.794L83.5329 90.3461L54.8201 101.772L40.177 104.682L38.566 101.945L119.461 51.9985C121.872 50.5036 124.558 49.586 127.246 49.3389C128.424 49.237 129.587 49.2762 130.708 49.455C131.702 49.6057 132.645 49.8964 133.508 50.3185C134.472 50.7967 136.307 50.8519 136.901 51.8047C136.903 51.8032 138.305 56.1776 132.065 59.794Z" fill="#E1E6E9"/>
<path d="M84.1762 86.3036L63.1809 119.774C62.9186 120.244 63.0743 120.77 63.5282 120.949C63.8067 121.059 64.1477 121.016 64.4341 120.834L69.7781 117.444C70.8059 116.791 71.7161 115.963 72.4522 115.009L113.169 67.1404L84.1762 86.3036Z" fill="#029BC5"/>
<path d="M31.1966 85.1861C30.8463 85.0664 30.4295 85.1285 30.0777 85.3525L25.6602 88.1659C25.0583 88.549 24.8185 89.2854 25.1243 89.8111C25.1826 89.911 25.2583 89.999 25.349 90.0714L37.7258 99.9838L50.7388 91.8557L31.1966 85.1861Z" fill="#029BC5"/>
<path d="M41.8742 101.771L35.2127 111.1C35.115 111.234 35.138 111.403 35.264 111.476C35.3548 111.529 35.4788 111.519 35.5796 111.452L39.7078 108.836C39.7399 108.815 39.7689 108.79 39.7929 108.761L49.5265 96.9261L41.8742 101.771Z" fill="#029BC5"/>
<path d="M129.911 49.8572C128.757 49.6718 127.559 49.6322 126.346 49.7388C125.165 51.3899 124.411 53.2446 124.157 55.118C124.139 55.4943 124.442 55.7652 124.835 55.723C124.957 55.7098 125.079 55.6669 125.188 55.5981L132.796 50.7538C131.906 50.3152 130.935 50.0134 129.911 49.8572Z" fill="#029BC5"/>
<path d="M113.332 58.7654L118.299 55.6284L122.926 63.4974L117.959 66.6344L113.332 58.7654Z" fill="#D5D6DB"/>
<path d="M110.207 61.8775C109.608 62.2566 109.369 62.9854 109.673 63.5051L110.165 64.3471C110.489 64.8536 111.228 64.9426 111.816 64.5459C112.376 64.1681 112.602 63.4815 112.332 62.9744L111.84 62.1325C111.536 61.6132 110.805 61.4989 110.207 61.8775Z" fill="#3A556A"/>
<path d="M105.742 64.6501C105.144 65.0292 104.904 65.758 105.208 66.2777L105.701 67.1197C106.024 67.6262 106.764 67.7152 107.352 67.3185C107.912 66.9407 108.137 66.2541 107.867 65.747L107.375 64.905C107.071 64.3859 106.34 64.2717 105.742 64.6501Z" fill="#3A556A"/>
<path d="M101.276 67.4233C100.678 67.803 100.44 68.5309 100.744 69.0501L101.236 69.8921C101.56 70.3986 102.299 70.4876 102.887 70.0909C103.447 69.7131 103.673 69.0265 103.403 68.5195L102.911 67.6775C102.607 67.1578 101.875 67.044 101.276 67.4233Z" fill="#3A556A"/>
<path d="M96.812 70.1958C96.2141 70.5754 95.9757 71.3034 96.2793 71.8226L96.7717 72.6646C97.0955 73.1711 97.8348 73.2601 98.4231 72.8634C98.9829 72.4856 99.2083 71.799 98.9385 71.2919L98.4462 70.45C98.1421 69.9304 97.4105 69.8166 96.812 70.1958Z" fill="#3A556A"/>
<path d="M92.3481 72.9684C91.7499 73.3483 91.5113 74.0765 91.8151 74.596L92.3077 75.4383C92.6114 75.9576 93.3427 76.0713 93.941 75.6923C94.5394 75.3133 94.7783 74.5851 94.4746 74.0659L93.982 73.2235C93.6791 72.7038 92.9481 72.5893 92.3494 72.9676C92.3489 72.968 92.3486 72.9681 92.3481 72.9684Z" fill="#3A556A"/>
<path d="M87.8837 75.7409C87.2854 76.1207 87.0469 76.8489 87.3507 77.3684L87.8433 78.2108C88.147 78.73 88.8782 78.8438 89.4766 78.4648C90.075 78.0858 90.3139 77.3576 90.0102 76.8383L89.5176 75.996C89.2147 75.4762 88.4837 75.3618 87.8849 75.7401C87.8844 75.7404 87.8839 75.7407 87.8837 75.7409Z" fill="#3A556A"/>
<path d="M83.4191 78.5134C82.8208 78.8932 82.5823 79.6214 82.8861 80.1409L83.3787 80.9832C83.6831 81.502 84.4147 81.6145 85.0125 81.2351C85.6092 80.8562 85.8476 80.1296 85.5453 79.6109L85.0527 78.7686C84.7492 78.249 84.0179 78.1347 83.4191 78.5134Z" fill="#3A556A"/>
<path d="M78.9545 81.2858C78.3562 81.6656 78.1177 82.3939 78.4215 82.9134L78.9141 83.7557C79.2185 84.2745 79.9501 84.3871 80.5479 84.0076C81.1446 83.6287 81.383 82.9021 81.0807 82.3834L80.5881 81.5411C80.2846 81.0214 79.5533 80.9071 78.9545 81.2858Z" fill="#3A556A"/>
<path d="M74.4902 84.0583C73.8919 84.4381 73.6534 85.1663 73.9572 85.6858L74.4498 86.5281C74.7542 87.0469 75.4858 87.1595 76.0836 86.78C76.6803 86.4011 76.9187 85.6745 76.6164 85.1559L76.1238 84.3136C75.82 83.7941 75.0888 83.6798 74.4902 84.0583Z" fill="#3A556A"/>
<path d="M70.0243 86.8315C69.426 87.2105 69.1871 87.9387 69.4908 88.4579L69.4914 88.459L69.984 89.3014C70.2884 89.8201 71.02 89.9327 71.6177 89.5532C72.2144 89.1744 72.4528 88.4477 72.1506 87.9291L71.658 87.0867C71.3545 86.5671 70.6232 86.4528 70.0243 86.8315Z" fill="#3A556A"/>
<path d="M65.5612 89.6032C64.9628 89.9822 64.7239 90.7104 65.0276 91.2296L65.0282 91.2307L65.5208 92.073C65.8252 92.5918 66.5568 92.7044 67.1546 92.3249C67.7513 91.9461 67.9897 91.2194 67.6874 90.7008L67.1948 89.8585C66.891 89.339 66.1598 89.2247 65.5612 89.6032Z" fill="#3A556A"/>
</svg>
